<!DOCTYPE svg PUBLIC "-//W3C//DTD SVG 20010904//EN" "http://www.w3.org/TR/2001/REC-SVG-20010904/DTD/svg10.dtd">
<svg version="1.0" xmlns="http://www.w3.org/2000/svg" width="512px" height="512px" viewBox="0 0 5120 5120" preserveAspectRatio="xMidYMid meet">
<g id="layer101" fill="#0a3260" stroke="none">
 <path d="M1152 4734 l-22 -15 0 -450 0 -449 -199 0 c-168 0 -202 -2 -215 -16 -32 -32 -11 -174 37 -254 12 -19 43 -58 69 -86 37 -39 52 -65 63 -108 30 -113 97 -203 194 -261 l51 -30 0 -537 0 -538 -138 0 c-122 0 -141 -2 -155 -18 -15 -17 -17 -60 -17 -415 0 -384 1 -398 20 -417 19 -19 33 -20 499 -20 l479 0 37 -49 c101 -132 272 -222 451 -237 75 -6 81 -8 104 -40 62 -84 189 -156 310 -175 252 -39 503 137 552 387 8 45 18 65 42 86 l31 27 272 1 c259 0 274 1 293 20 19 19 20 33 20 413 0 339 -2 396 -16 415 -14 21 -22 22 -155 22 l-139 0 0 1364 0 1365 -22 15 c-20 14 -153 16 -1223 16 -1070 0 -1203 -2 -1223 -16z"/>
 <path d="M3332 948 c-17 -17 -15 -96 4 -151 9 -26 36 -69 60 -96 28 -31 50 -69 59 -99 23 -76 72 -142 134 -179 130 -77 275 -64 383 35 33 31 54 42 93 47 163 24 290 129 337 277 21 68 24 148 6 166 -17 17 -1059 17 -1076 0z"/>
 </g>
<g id="layer102" fill="#7f1840" stroke="none">
 <path d="M1240 4460 l0 -180 145 0 145 0 0 180 0 180 -145 0 -145 0 0 -180z"/>
 <path d="M1632 4463 l3 -178 343 -2 342 -3 0 180 0 180 -345 0 -345 0 2 -177z"/>
 <path d="M2430 4465 l0 -175 345 0 345 0 0 175 0 175 -345 0 -345 0 0 -175z"/>
 <path d="M3220 4460 l0 -180 145 0 145 0 0 180 0 180 -145 0 -145 0 0 -180z"/>
 <path d="M1240 3998 l0 -181 248 6 c136 4 291 7 345 7 l97 0 0 175 0 175 -345 0 -345 0 0 -182z"/>
 <path d="M2030 4005 l0 -175 345 0 345 0 0 175 0 175 -345 0 -345 0 0 -175z"/>
 <path d="M2820 4005 l0 -175 88 0 c49 0 204 -3 345 -7 l257 -6 0 181 0 182 -345 0 -345 0 0 -175z"/>
 <path d="M2181 3659 c-17 -84 -54 -163 -107 -231 l-45 -58 145 0 146 0 0 175 0 175 -63 0 -63 0 -13 -61z"/>
 <path d="M2430 3545 l0 -175 345 0 345 0 0 175 0 175 -345 0 -345 0 0 -175z"/>
 <path d="M3220 3545 l0 -175 145 0 145 0 0 175 0 175 -145 0 -145 0 0 -175z"/>
 <path d="M810 3698 c0 -48 80 -161 139 -199 18 -11 26 -28 33 -74 12 -81 38 -135 88 -185 134 -134 358 -120 467 28 42 57 51 62 123 62 123 0 226 46 313 139 47 50 89 123 101 176 4 17 9 38 12 48 5 16 -30 17 -635 17 -506 0 -641 -3 -641 -12z"/>
 <path d="M1811 3249 c-14 -5 -59 -15 -100 -21 -72 -10 -79 -13 -131 -63 -31 -29 -75 -62 -98 -74 -54 -28 -145 -51 -199 -51 l-43 0 0 -65 0 -65 340 0 340 0 0 175 0 175 -42 -1 c-24 0 -54 -5 -67 -10z"/>
 <path d="M2030 3085 l0 -175 345 0 345 0 0 175 0 175 -345 0 -345 0 0 -175z"/>
 <path d="M2820 3085 l0 -175 345 0 345 0 0 175 0 175 -345 0 -345 0 0 -175z"/>
 <path d="M1240 2625 l0 -175 145 0 145 0 0 175 0 175 -145 0 -145 0 0 -175z"/>
 <path d="M1630 2625 l0 -175 345 0 345 0 0 175 0 175 -345 0 -345 0 0 -175z"/>
 <path d="M2430 2625 l0 -175 345 0 345 0 0 175 0 175 -345 0 -345 0 0 -175z"/>
 <path d="M3220 2625 l0 -175 145 0 145 0 0 175 0 175 -145 0 -145 0 0 -175z"/>
 <path d="M1240 2165 l0 -175 345 0 345 0 0 175 0 175 -345 0 -345 0 0 -175z"/>
 <path d="M2030 2165 l0 -175 345 0 345 0 0 175 0 175 -345 0 -345 0 0 -175z"/>
 <path d="M2820 2165 l0 -175 345 0 345 0 0 175 0 175 -345 0 -345 0 0 -175z"/>
 <path d="M930 1558 l0 -328 419 0 420 0 -20 57 c-25 73 -35 182 -20 211 l12 22 859 0 860 0 15 -24 c13 -20 14 -34 5 -90 -10 -66 -34 -139 -53 -163 -7 -10 32 -13 192 -13 l201 0 0 328 0 327 -1445 0 -1445 0 0 -327z"/>
 <path d="M1830 1396 c0 -45 40 -152 78 -212 100 -153 268 -243 458 -244 l71 0 39 -52 c48 -65 123 -122 189 -145 72 -26 194 -23 267 6 122 47 222 178 237 312 7 57 11 65 47 93 86 67 142 150 159 234 l7 32 -776 0 -776 0 0 -24z"/>
 <path d="M3437 854 c-12 -12 33 -82 73 -114 30 -24 40 -39 40 -61 0 -97 102 -198 200 -199 68 0 112 20 164 74 49 51 53 53 117 58 81 7 144 34 194 83 35 36 85 124 85 153 0 9 -93 12 -433 12 -239 0 -436 -3 -440 -6z"/>
 </g>
<g id="layer103" fill="#b32551" stroke="none">
 <path d="M1632 4463 l3 -178 343 -2 342 -3 0 180 0 180 -345 0 -345 0 2 -177z"/>
 <path d="M2430 4465 l0 -175 345 0 345 0 0 175 0 175 -345 0 -345 0 0 -175z"/>
 <path d="M1240 3998 l0 -181 248 6 c136 4 291 7 345 7 l97 0 0 175 0 175 -345 0 -345 0 0 -182z"/>
 <path d="M2030 4005 l0 -175 345 0 345 0 0 175 0 175 -345 0 -345 0 0 -175z"/>
 <path d="M2820 4005 l0 -175 103 0 c57 0 212 -3 345 -7 l242 -6 0 181 0 182 -345 0 -345 0 0 -175z"/>
 <path d="M2181 3659 c-17 -84 -54 -163 -107 -231 l-45 -58 145 0 146 0 0 175 0 175 -63 0 -63 0 -13 -61z"/>
 <path d="M2430 3545 l0 -175 345 0 345 0 0 175 0 175 -345 0 -345 0 0 -175z"/>
 <path d="M810 3698 c0 -48 80 -161 139 -199 18 -11 26 -28 33 -74 12 -81 38 -135 88 -185 134 -134 358 -120 467 28 42 57 51 62 123 62 123 0 226 46 313 139 47 50 89 123 101 176 4 17 9 38 12 48 5 16 -30 17 -635 17 -506 0 -641 -3 -641 -12z"/>
 <path d="M1812 3244 c-24 -7 -72 -16 -108 -19 -61 -6 -67 -9 -117 -59 -74 -73 -167 -117 -269 -123 l-78 -6 0 -63 0 -64 340 0 340 0 0 175 0 175 -32 -1 c-18 -1 -52 -7 -76 -15z"/>
 <path d="M2030 3085 l0 -175 345 0 345 0 0 175 0 175 -345 0 -345 0 0 -175z"/>
 <path d="M2820 3085 l0 -175 345 0 345 0 0 175 0 175 -345 0 -345 0 0 -175z"/>
 <path d="M1630 2625 l0 -175 345 0 345 0 0 175 0 175 -345 0 -345 0 0 -175z"/>
 <path d="M2430 2625 l0 -175 345 0 345 0 0 175 0 175 -345 0 -345 0 0 -175z"/>
 <path d="M1240 2165 l0 -175 345 0 345 0 0 175 0 175 -345 0 -345 0 0 -175z"/>
 <path d="M2030 2165 l0 -175 345 0 345 0 0 175 0 175 -345 0 -345 0 0 -175z"/>
 <path d="M2820 2165 l0 -175 345 0 345 0 0 175 0 175 -345 0 -345 0 0 -175z"/>
 <path d="M930 1558 l0 -328 419 0 420 0 -20 57 c-25 73 -35 182 -20 211 l12 22 859 0 860 0 15 -24 c13 -20 14 -34 5 -90 -10 -66 -34 -139 -53 -163 -7 -10 32 -13 192 -13 l201 0 0 328 0 327 -1445 0 -1445 0 0 -327z"/>
 <path d="M1830 1396 c0 -45 40 -152 78 -212 100 -153 268 -243 458 -244 l71 0 39 -52 c48 -65 123 -122 189 -145 72 -26 194 -23 267 6 122 47 222 178 237 312 7 57 11 65 47 93 86 67 142 150 159 234 l7 32 -776 0 -776 0 0 -24z"/>
 <path d="M3437 854 c-12 -12 33 -82 73 -114 30 -24 40 -39 40 -61 0 -97 102 -198 200 -199 68 0 112 20 164 74 49 51 53 53 117 58 81 7 144 34 194 83 35 36 85 124 85 153 0 9 -93 12 -433 12 -239 0 -436 -3 -440 -6z"/>
 </g>
<g id="layer104" fill="#e83862" stroke="none">
 <path d="M2820 4005 l0 -175 345 0 345 0 0 175 0 175 -345 0 -345 0 0 -175z"/>
 <path d="M2190 3691 c0 -77 -64 -216 -133 -288 l-31 -33 147 0 147 0 0 175 0 175 -65 0 -65 0 0 -29z"/>
 <path d="M810 3698 c0 -48 80 -161 139 -199 18 -11 26 -28 33 -74 12 -81 38 -135 88 -185 134 -134 358 -120 467 28 42 57 51 62 123 62 123 0 226 46 313 139 47 50 89 123 101 176 4 17 9 38 12 48 5 16 -30 17 -635 17 -506 0 -641 -3 -641 -12z"/>
 <path d="M2030 3085 l0 -175 345 0 345 0 0 175 0 175 -345 0 -345 0 0 -175z"/>
 <path d="M1640 2625 l0 -175 340 0 340 0 0 175 0 175 -340 0 -340 0 0 -175z"/>
 <path d="M2030 2165 l0 -175 345 0 345 0 0 175 0 175 -345 0 -345 0 0 -175z"/>
 <path d="M930 1558 l0 -328 419 0 420 0 -20 57 c-25 73 -35 182 -20 211 l12 22 859 0 860 0 15 -24 c13 -20 14 -34 5 -90 -10 -66 -34 -139 -53 -163 -7 -10 32 -13 192 -13 l201 0 0 328 0 327 -1445 0 -1445 0 0 -327z"/>
 <path d="M1830 1396 c0 -45 40 -152 78 -212 100 -153 268 -243 458 -244 l71 0 39 -52 c48 -65 123 -122 189 -145 72 -26 194 -23 267 6 122 47 222 178 237 312 7 57 11 65 47 93 86 67 142 150 159 234 l7 32 -776 0 -776 0 0 -24z"/>
 <path d="M3437 854 c-12 -12 33 -82 73 -114 30 -24 40 -39 40 -61 0 -97 102 -198 200 -199 68 0 112 20 164 74 49 51 53 53 117 58 81 7 144 34 194 83 35 36 85 124 85 153 0 9 -93 12 -433 12 -239 0 -436 -3 -440 -6z"/>
 </g>
<g id="layer105" fill="#aedcff" stroke="none">
 <path d="M810 3698 c0 -48 80 -161 139 -199 18 -11 26 -28 33 -74 12 -81 38 -135 88 -185 134 -134 358 -120 467 28 42 57 51 62 123 62 123 0 226 46 313 139 47 50 89 123 101 176 4 17 9 38 12 48 5 16 -30 17 -635 17 -506 0 -641 -3 -641 -12z"/>
 <path d="M930 1558 l0 -328 419 0 420 0 -20 57 c-25 73 -35 182 -20 211 l12 22 859 0 860 0 15 -24 c13 -20 14 -34 5 -90 -10 -66 -34 -139 -53 -163 -7 -10 32 -13 192 -13 l201 0 0 328 0 327 -1445 0 -1445 0 0 -327z"/>
 <path d="M1830 1396 c0 -45 40 -152 78 -212 100 -153 268 -243 458 -244 l71 0 39 -52 c48 -65 123 -122 189 -145 72 -26 194 -23 267 6 122 47 222 178 237 312 7 57 11 65 47 93 86 67 142 150 159 234 l7 32 -776 0 -776 0 0 -24z"/>
 <path d="M3437 854 c-12 -12 33 -82 73 -114 30 -24 40 -39 40 -61 0 -97 102 -198 200 -199 68 0 112 20 164 74 49 51 53 53 117 58 81 7 144 34 194 83 35 36 85 124 85 153 0 9 -93 12 -433 12 -239 0 -436 -3 -440 -6z"/>
 </g>
<g id="layer106" fill="#e2e8d5" stroke="none">
 <path d="M819 3683 c11 -52 72 -144 112 -170 38 -25 48 -41 53 -86 17 -139 104 -233 250 -271 66 -18 133 -8 199 30 48 27 127 101 127 119 0 15 29 22 125 29 33 3 71 8 85 11 43 12 118 51 159 84 44 35 121 146 138 201 28 88 34 80 -57 80 -56 0 -82 -4 -84 -12 -23 -81 -45 -119 -100 -174 -66 -65 -116 -89 -213 -100 -44 -6 -59 -13 -100 -53 -104 -100 -262 -96 -359 11 -39 44 -64 94 -64 131 0 14 -19 43 -49 74 -27 28 -54 67 -61 87 l-12 36 -78 0 -77 0 6 -27z"/>
 <path d="M930 1558 l0 -328 419 0 420 0 -20 57 c-25 73 -35 182 -20 211 l12 22 859 0 860 0 15 -24 c13 -20 14 -34 5 -90 -10 -66 -34 -139 -53 -163 -7 -10 32 -13 192 -13 l201 0 0 328 0 327 -1445 0 -1445 0 0 -327z"/>
 <path d="M1836 1373 c9 -65 36 -133 68 -175 14 -19 26 -37 26 -40 0 -3 28 -33 63 -68 95 -94 216 -142 365 -145 76 -1 85 -3 103 -25 10 -14 19 -28 19 -32 0 -14 93 -93 139 -119 51 -29 103 -41 171 -41 66 -1 155 20 183 43 14 10 28 19 31 19 3 0 29 25 57 54 59 63 97 135 104 198 10 87 15 96 64 128 29 18 62 51 81 83 36 56 68 137 62 156 -2 7 -36 11 -98 11 -81 0 -95 -2 -100 -17 -15 -51 -62 -128 -95 -157 -26 -22 -41 -44 -45 -67 -22 -129 -108 -223 -233 -255 -110 -28 -218 9 -299 101 -38 43 -42 45 -94 45 -100 0 -225 61 -287 138 -38 49 -78 129 -86 175 l-7 37 -100 0 -99 0 7 -47z"/>
 <path d="M3438 854 c-14 -14 41 -88 94 -127 10 -7 19 -32 22 -61 7 -55 18 -75 67 -125 45 -45 80 -58 140 -54 75 4 169 54 169 89 0 22 46 42 91 40 101 -5 189 45 244 137 45 76 44 101 -7 105 -35 3 -38 0 -59 -40 -43 -87 -113 -140 -202 -153 -33 -5 -57 -17 -82 -41 -58 -55 -134 -65 -206 -28 -43 22 -88 81 -95 124 -4 22 -10 40 -15 40 -5 0 -25 23 -45 50 -32 45 -40 50 -73 50 -21 0 -40 -3 -43 -6z"/>
 </g>

</svg>