<!DOCTYPE svg PUBLIC "-//W3C//DTD SVG 20010904//EN" "http://www.w3.org/TR/2001/REC-SVG-20010904/DTD/svg10.dtd">
<svg version="1.0" xmlns="http://www.w3.org/2000/svg" width="512px" height="512px" viewBox="0 0 5120 5120" preserveAspectRatio="xMidYMid meet">
<g id="layer101" fill="#0a315f" stroke="none">
 <path d="M2215 5114 c-843 -120 -1579 -683 -1913 -1464 -139 -323 -196 -605 -196 -970 -1 -425 77 -753 269 -1130 182 -357 453 -663 798 -903 123 -85 350 -217 374 -217 6 0 19 -7 27 -16 9 -8 16 -12 16 -7 0 4 4 3 8 -3 11 -18 192 -81 335 -119 428 -111 826 -111 1254 0 143 38 324 101 335 119 4 6 8 7 8 3 0 -4 6 -3 13 2 6 6 62 36 122 66 216 110 457 287 635 465 826 826 956 2117 312 3092 -363 548 -909 916 -1575 1060 -93 20 -134 22 -447 24 -190 1 -358 0 -375 -2z"/>
 </g>
<g id="layer102" fill="#7e173f" stroke="none">
 <path d="M2425 4899 c-637 -31 -1257 -339 -1667 -828 -221 -264 -398 -605 -476 -917 -57 -227 -67 -314 -67 -599 0 -289 10 -375 70 -610 46 -180 75 -257 162 -429 99 -196 137 -257 253 -406 217 -279 554 -552 827 -672 27 -11 51 -26 55 -32 5 -6 8 -7 8 -1 0 6 3 5 8 -1 11 -18 192 -81 335 -119 428 -111 826 -111 1254 0 143 38 324 101 335 119 5 6 8 7 8 1 0 -6 3 -5 8 1 4 6 28 21 55 32 274 120 611 395 826 672 119 153 160 218 249 396 108 215 178 438 219 694 27 173 25 559 -5 730 -66 384 -211 725 -440 1034 -100 135 -340 373 -476 474 -455 336 -966 488 -1541 461z m1017 -484 c17 -7 18 -75 20 -1174 l3 -1166 114 -3 c64 -1 121 -8 128 -14 10 -8 13 -82 13 -348 0 -186 -3 -345 -6 -354 -5 -14 -36 -16 -243 -16 l-236 -1 -31 -27 c-21 -18 -33 -40 -37 -66 -16 -100 -105 -231 -194 -283 -174 -102 -372 -75 -514 70 -52 52 -61 57 -101 57 -138 0 -316 92 -398 207 l-31 43 -413 0 c-307 0 -415 3 -424 12 -9 9 -12 101 -12 355 0 328 1 343 19 353 11 5 69 10 130 10 l111 0 0 464 0 464 -43 25 c-79 47 -167 169 -167 234 0 13 -24 49 -55 83 -74 84 -122 219 -95 269 10 20 19 21 185 21 l175 0 0 378 c0 287 3 382 13 395 10 14 38 17 192 20 311 6 1879 0 1897 -8z m692 -3241 c20 -19 20 -35 1 -109 -20 -76 -74 -156 -133 -195 -49 -32 -128 -60 -172 -60 -16 0 -37 -12 -56 -31 -43 -47 -119 -79 -184 -79 -80 0 -121 15 -175 62 -44 39 -95 123 -95 157 0 8 -18 33 -39 56 -25 27 -46 63 -55 96 -20 66 -20 84 0 103 14 14 69 16 454 16 385 0 440 -2 454 -16z"/>
 <path d="M1430 4185 l0 -155 125 0 125 0 0 155 0 155 -125 0 -125 0 0 -155z"/>
 <path d="M1772 4188 l3 -153 290 0 290 0 3 153 3 152 -296 0 -296 0 3 -152z"/>
 <path d="M2450 4185 l0 -154 293 2 292 2 3 153 3 152 -296 0 -295 0 0 -155z"/>
 <path d="M3124 4327 c-2 -7 -3 -76 -2 -152 l3 -140 123 -3 122 -3 0 156 0 155 -120 0 c-90 0 -122 -3 -126 -13z"/>
 <path d="M1718 3942 l-288 -2 0 -150 0 -150 295 0 295 0 0 149 c0 83 -3 151 -7 153 -5 2 -137 2 -295 0z"/>
 <path d="M2398 3942 l-288 -2 0 -150 0 -150 295 0 295 0 0 149 c0 83 -3 151 -7 153 -5 2 -137 2 -295 0z"/>
 <path d="M2788 3794 c-2 -80 -1 -148 1 -150 2 -2 134 -4 293 -4 l288 0 0 150 0 150 -289 0 -290 0 -3 -146z"/>
 <path d="M2236 3503 c-8 -59 -53 -158 -95 -205 -17 -20 -31 -39 -31 -42 0 -4 55 -5 123 -4 l122 3 3 148 3 147 -59 0 -59 0 -7 -47z"/>
 <path d="M2450 3400 l0 -150 295 0 295 0 0 150 0 150 -295 0 -295 0 0 -150z"/>
 <path d="M3120 3400 l0 -150 125 0 125 0 0 150 0 150 -125 0 -125 0 0 -150z"/>
 <path d="M1072 3508 c17 -50 55 -102 98 -137 26 -21 40 -40 40 -55 0 -42 32 -124 62 -160 16 -20 51 -48 76 -64 41 -23 58 -27 127 -27 69 0 86 4 127 28 26 15 66 49 88 76 l41 49 82 4 c98 5 152 28 226 94 51 45 96 123 111 189 l8 35 -549 0 -548 0 11 -32z"/>
 <path d="M1905 3145 c-22 -8 -60 -14 -84 -14 -38 -1 -50 -7 -102 -55 -66 -61 -141 -95 -231 -103 l-58 -6 0 -53 c0 -29 5 -56 10 -59 6 -4 139 -3 295 1 l285 7 0 148 0 149 -37 -1 c-21 -1 -56 -7 -78 -14z"/>
 <path d="M2110 3010 l0 -150 295 0 295 0 0 150 0 150 -295 0 -295 0 0 -150z"/>
 <path d="M2790 3010 l0 -150 290 0 290 0 0 150 0 150 -290 0 -290 0 0 -150z"/>
 <path d="M1432 2618 l3 -153 123 -3 122 -3 0 156 0 155 -125 0 -126 0 3 -152z"/>
 <path d="M1770 2620 l0 -150 295 0 296 0 -3 148 -3 147 -292 3 -293 2 0 -150z"/>
 <path d="M2450 2620 l0 -150 295 0 296 0 -3 148 -3 147 -292 3 -293 2 0 -150z"/>
 <path d="M3124 2757 c-2 -7 -3 -76 -2 -152 l3 -140 123 -3 122 -3 0 156 0 155 -120 0 c-90 0 -122 -3 -126 -13z"/>
 <path d="M1438 2375 c-5 -5 -8 -75 -8 -157 l0 -148 295 0 295 0 0 150 0 150 -87 0 c-49 0 -178 3 -288 6 -110 4 -203 3 -207 -1z"/>
 <path d="M2942 2373 l-163 -3 3 -148 3 -147 293 -3 292 -2 0 155 0 155 -132 -2 c-73 -1 -206 -4 -296 -5z"/>
 <path d="M2110 2220 l0 -150 295 0 295 0 0 150 0 150 -295 0 -295 0 0 -150z"/>
 <path d="M1170 1700 l0 -280 349 0 c195 0 352 4 355 9 3 5 -1 27 -9 50 -22 62 -30 158 -15 176 11 13 105 15 745 15 643 0 734 -2 745 -15 18 -21 7 -118 -19 -178 -16 -36 -18 -49 -8 -53 7 -2 82 -3 167 -2 l155 3 3 278 2 277 -1235 0 -1235 0 0 -280z"/>
 <path d="M1942 1542 c12 -120 124 -263 255 -324 56 -27 83 -33 158 -36 l90 -4 59 -64 c84 -93 137 -118 251 -119 74 0 98 4 136 23 107 52 172 141 188 253 7 55 12 66 42 89 73 54 120 124 135 198 l7 32 -663 0 -663 0 5 -48z"/>
 <path d="M3314 1101 c-13 -13 2 -39 46 -83 40 -39 50 -56 50 -82 0 -63 73 -138 147 -152 55 -10 113 12 159 62 33 36 48 44 76 44 92 0 198 62 237 139 41 79 71 73 -342 75 -203 0 -371 -1 -373 -3z"/>
 </g>
<g id="layer103" fill="#b02450" stroke="none">
 <path d="M2425 4899 c-637 -31 -1257 -339 -1667 -828 -221 -264 -398 -605 -476 -917 -57 -227 -67 -314 -67 -599 0 -289 10 -375 70 -610 46 -180 75 -257 162 -429 99 -196 137 -257 253 -406 217 -279 554 -552 827 -672 27 -11 51 -26 55 -32 5 -6 8 -7 8 -1 0 6 3 5 8 -1 11 -18 192 -81 335 -119 428 -111 826 -111 1254 0 143 38 324 101 335 119 5 6 8 7 8 1 0 -6 3 -5 8 1 4 6 28 21 55 32 274 120 611 395 826 672 119 153 160 218 249 396 108 215 178 438 219 694 27 173 25 559 -5 730 -66 384 -211 725 -440 1034 -100 135 -340 373 -476 474 -455 336 -966 488 -1541 461z m1017 -484 c17 -7 18 -75 20 -1174 l3 -1166 114 -3 c64 -1 121 -8 128 -14 10 -8 13 -82 13 -348 0 -186 -3 -345 -6 -354 -5 -14 -36 -16 -243 -16 l-236 -1 -31 -27 c-21 -18 -33 -40 -37 -66 -16 -100 -105 -231 -194 -283 -174 -102 -372 -75 -514 70 -52 52 -61 57 -101 57 -138 0 -316 92 -398 207 l-31 43 -413 0 c-307 0 -415 3 -424 12 -9 9 -12 101 -12 355 0 328 1 343 19 353 11 5 69 10 130 10 l111 0 0 464 0 464 -43 25 c-79 47 -167 169 -167 234 0 13 -24 49 -55 83 -74 84 -122 219 -95 269 10 20 19 21 185 21 l175 0 0 378 c0 287 3 382 13 395 10 14 38 17 192 20 311 6 1879 0 1897 -8z m692 -3241 c20 -19 20 -35 1 -109 -20 -76 -74 -156 -133 -195 -49 -32 -128 -60 -172 -60 -16 0 -37 -12 -56 -31 -43 -47 -119 -79 -184 -79 -80 0 -121 15 -175 62 -44 39 -95 123 -95 157 0 8 -18 33 -39 56 -25 27 -46 63 -55 96 -20 66 -20 84 0 103 14 14 69 16 454 16 385 0 440 -2 454 -16z"/>
 <path d="M1772 4183 l3 -148 290 0 290 0 0 145 0 145 -293 3 -293 2 3 -147z"/>
 <path d="M2450 4180 l0 -149 293 2 292 2 0 145 0 145 -292 3 -293 2 0 -150z"/>
 <path d="M1430 3788 l0 -151 212 6 c116 4 246 7 290 7 l78 0 0 145 0 145 -290 0 -290 0 0 -152z"/>
 <path d="M2110 3790 l0 -150 288 2 287 3 3 148 3 147 -291 0 -290 0 0 -150z"/>
 <path d="M2788 3794 c-2 -80 -1 -148 1 -150 2 -2 134 -4 293 -4 l288 0 0 150 0 150 -289 0 -290 0 -3 -146z"/>
 <path d="M2236 3503 c-8 -59 -53 -158 -95 -205 -17 -20 -31 -39 -31 -42 0 -4 55 -5 123 -4 l122 3 3 148 3 147 -59 0 -59 0 -7 -47z"/>
 <path d="M2450 3405 l0 -145 290 0 290 0 0 145 0 145 -290 0 -290 0 0 -145z"/>
 <path d="M1072 3508 c17 -50 55 -102 98 -137 26 -21 40 -40 40 -55 0 -42 32 -124 62 -160 16 -20 51 -48 76 -64 41 -23 58 -27 127 -27 69 0 86 4 127 28 26 15 66 49 88 76 l41 49 82 4 c98 5 152 28 226 94 51 45 96 123 111 189 l8 35 -549 0 -548 0 11 -32z"/>
 <path d="M1930 3148 c-19 -5 -62 -15 -96 -21 -50 -10 -70 -20 -112 -59 -71 -63 -126 -88 -211 -95 l-71 -6 0 -53 0 -54 290 0 290 0 0 150 0 150 -27 -1 c-16 -1 -44 -5 -63 -11z"/>
 <path d="M2110 3010 l0 -150 295 0 295 0 0 150 0 150 -295 0 -295 0 0 -150z"/>
 <path d="M2790 3010 l0 -150 290 0 290 0 0 150 0 150 -290 0 -290 0 0 -150z"/>
 <path d="M1770 2620 l0 -150 295 0 296 0 -3 148 -3 147 -292 3 -293 2 0 -150z"/>
 <path d="M2450 2620 l0 -150 295 0 296 0 -3 148 -3 147 -292 3 -293 2 0 -150z"/>
 <path d="M1438 2375 c-5 -5 -8 -73 -8 -152 l0 -143 290 0 290 0 0 145 0 145 -82 0 c-46 0 -173 3 -283 6 -110 4 -203 3 -207 -1z"/>
 <path d="M2948 2373 l-158 -4 0 -144 0 -145 290 0 290 0 0 150 0 150 -132 -2 c-73 -1 -204 -4 -290 -5z"/>
 <path d="M2110 2220 l0 -150 295 0 295 0 0 150 0 150 -295 0 -295 0 0 -150z"/>
 <path d="M1170 1700 l0 -280 349 0 c195 0 352 4 355 9 3 5 -1 27 -9 50 -22 62 -30 158 -15 176 11 13 105 15 745 15 643 0 734 -2 745 -15 18 -21 7 -118 -19 -178 -16 -36 -18 -49 -8 -53 7 -2 82 -3 167 -2 l155 3 3 278 2 277 -1235 0 -1235 0 0 -280z"/>
 <path d="M1942 1542 c12 -120 124 -263 255 -324 56 -27 83 -33 158 -36 l90 -4 59 -64 c84 -93 137 -118 251 -119 74 0 98 4 136 23 107 52 172 141 188 253 7 55 12 66 42 89 73 54 120 124 135 198 l7 32 -663 0 -663 0 5 -48z"/>
 <path d="M3314 1101 c-13 -13 2 -39 46 -83 40 -39 50 -56 50 -82 0 -63 73 -138 147 -152 55 -10 113 12 159 62 33 36 48 44 76 44 92 0 198 62 237 139 41 79 71 73 -342 75 -203 0 -371 -1 -373 -3z"/>
 </g>
<g id="layer104" fill="#e63761" stroke="none">
 <path d="M2425 4899 c-637 -31 -1257 -339 -1667 -828 -221 -264 -398 -605 -476 -917 -57 -227 -67 -314 -67 -599 0 -289 10 -375 70 -610 46 -180 75 -257 162 -429 99 -196 137 -257 253 -406 217 -279 554 -552 827 -672 27 -11 51 -26 55 -32 5 -6 8 -7 8 -1 0 6 3 5 8 -1 11 -18 192 -81 335 -119 428 -111 826 -111 1254 0 143 38 324 101 335 119 5 6 8 7 8 1 0 -6 3 -5 8 1 4 6 28 21 55 32 274 120 611 395 826 672 119 153 160 218 249 396 108 215 178 438 219 694 27 173 25 559 -5 730 -66 384 -211 725 -440 1034 -100 135 -340 373 -476 474 -455 336 -966 488 -1541 461z m1017 -484 c17 -7 18 -75 20 -1174 l3 -1166 114 -3 c64 -1 121 -8 128 -14 10 -8 13 -82 13 -348 0 -186 -3 -345 -6 -354 -5 -14 -36 -16 -243 -16 l-236 -1 -31 -27 c-21 -18 -33 -40 -37 -66 -16 -100 -105 -231 -194 -283 -174 -102 -372 -75 -514 70 -52 52 -61 57 -101 57 -138 0 -316 92 -398 207 l-31 43 -413 0 c-307 0 -415 3 -424 12 -9 9 -12 101 -12 355 0 328 1 343 19 353 11 5 69 10 130 10 l111 0 0 464 0 464 -43 25 c-79 47 -167 169 -167 234 0 13 -24 49 -55 83 -74 84 -122 219 -95 269 10 20 19 21 185 21 l175 0 0 378 c0 287 3 382 13 395 10 14 38 17 192 20 311 6 1879 0 1897 -8z m692 -3241 c20 -19 20 -35 1 -109 -20 -76 -74 -156 -133 -195 -49 -32 -128 -60 -172 -60 -16 0 -37 -12 -56 -31 -43 -47 -119 -79 -184 -79 -80 0 -121 15 -175 62 -44 39 -95 123 -95 157 0 8 -18 33 -39 56 -25 27 -46 63 -55 96 -20 66 -20 84 0 103 14 14 69 16 454 16 385 0 440 -2 454 -16z"/>
 <path d="M2790 3795 l0 -145 290 0 290 0 0 145 0 145 -290 0 -290 0 0 -145z"/>
 <path d="M2246 3506 c-4 -24 -16 -61 -26 -82 -11 -21 -20 -42 -20 -48 0 -5 -18 -33 -40 -62 -22 -29 -40 -56 -40 -59 0 -3 53 -4 118 -3 l117 3 3 148 3 147 -55 0 -54 0 -6 -44z"/>
 <path d="M1072 3508 c17 -50 55 -102 98 -137 26 -21 40 -40 40 -55 0 -42 32 -124 62 -160 16 -20 51 -48 76 -64 41 -23 58 -27 127 -27 69 0 86 4 127 28 26 15 66 49 88 76 l41 49 82 4 c98 5 152 28 226 94 51 45 96 123 111 189 l8 35 -549 0 -548 0 11 -32z"/>
 <path d="M2110 3010 l0 -150 290 0 290 0 0 150 0 150 -290 0 -290 0 0 -150z"/>
 <path d="M1770 2615 l0 -145 295 0 296 0 -3 143 -3 142 -292 3 -293 2 0 -145z"/>
 <path d="M2110 2225 l0 -145 290 0 290 0 0 145 0 145 -290 0 -290 0 0 -145z"/>
 <path d="M1170 1700 l0 -280 349 0 c195 0 352 4 355 9 3 5 -1 27 -9 50 -22 62 -30 158 -15 176 11 13 105 15 745 15 643 0 734 -2 745 -15 18 -21 7 -118 -19 -178 -16 -36 -18 -49 -8 -53 7 -2 82 -3 167 -2 l155 3 3 278 2 277 -1235 0 -1235 0 0 -280z"/>
 <path d="M1942 1542 c12 -120 124 -263 255 -324 56 -27 83 -33 158 -36 l90 -4 59 -64 c84 -93 137 -118 251 -119 74 0 98 4 136 23 107 52 172 141 188 253 7 55 12 66 42 89 73 54 120 124 135 198 l7 32 -663 0 -663 0 5 -48z"/>
 <path d="M3314 1101 c-13 -13 2 -39 46 -83 40 -39 50 -56 50 -82 0 -63 73 -138 147 -152 55 -10 113 12 159 62 33 36 48 44 76 44 92 0 198 62 237 139 41 79 71 73 -342 75 -203 0 -371 -1 -373 -3z"/>
 </g>
<g id="layer105" fill="#d3cfae" stroke="none">
 <path d="M2425 4899 c-637 -31 -1257 -339 -1667 -828 -221 -264 -398 -605 -476 -917 -57 -227 -67 -314 -67 -599 0 -289 10 -375 70 -610 46 -180 75 -257 162 -429 99 -196 137 -257 253 -406 217 -279 554 -552 827 -672 27 -11 51 -26 55 -32 5 -6 8 -7 8 -1 0 6 3 5 8 -1 11 -18 192 -81 335 -119 428 -111 826 -111 1254 0 143 38 324 101 335 119 5 6 8 7 8 1 0 -6 3 -5 8 1 4 6 28 21 55 32 274 120 611 395 826 672 119 153 160 218 249 396 108 215 178 438 219 694 27 173 25 559 -5 730 -66 384 -211 725 -440 1034 -100 135 -340 373 -476 474 -455 336 -966 488 -1541 461z m1017 -484 c17 -7 18 -75 20 -1174 l3 -1166 114 -3 c64 -1 121 -8 128 -14 10 -8 13 -82 13 -348 0 -186 -3 -345 -6 -354 -5 -14 -36 -16 -243 -16 l-236 -1 -31 -27 c-21 -18 -33 -40 -37 -66 -16 -100 -105 -231 -194 -283 -174 -102 -372 -75 -514 70 -52 52 -61 57 -101 57 -138 0 -316 92 -398 207 l-31 43 -413 0 c-307 0 -415 3 -424 12 -9 9 -12 101 -12 355 0 328 1 343 19 353 11 5 69 10 130 10 l111 0 0 464 0 464 -43 25 c-79 47 -167 169 -167 234 0 13 -24 49 -55 83 -74 84 -122 219 -95 269 10 20 19 21 185 21 l175 0 0 378 c0 287 3 382 13 395 10 14 38 17 192 20 311 6 1879 0 1897 -8z m692 -3241 c20 -19 20 -35 1 -109 -20 -76 -74 -156 -133 -195 -49 -32 -128 -60 -172 -60 -16 0 -37 -12 -56 -31 -43 -47 -119 -79 -184 -79 -80 0 -121 15 -175 62 -44 39 -95 123 -95 157 0 8 -18 33 -39 56 -25 27 -46 63 -55 96 -20 66 -20 84 0 103 14 14 69 16 454 16 385 0 440 -2 454 -16z"/>
 <path d="M1072 3508 c17 -50 55 -102 98 -137 26 -21 40 -40 40 -55 0 -42 32 -124 62 -160 16 -20 51 -48 76 -64 41 -23 58 -27 127 -27 69 0 86 4 127 28 26 15 66 49 88 76 l41 49 82 4 c98 5 152 28 226 94 51 45 96 123 111 189 l8 35 -549 0 -548 0 11 -32z"/>
 <path d="M1170 1700 l0 -280 349 0 c195 0 352 4 355 9 3 5 -1 27 -9 50 -22 62 -30 158 -15 176 11 13 105 15 745 15 643 0 734 -2 745 -15 18 -21 7 -118 -19 -178 -16 -36 -18 -49 -8 -53 7 -2 82 -3 167 -2 l155 3 3 278 2 277 -1235 0 -1235 0 0 -280z"/>
 <path d="M1942 1542 c12 -120 124 -263 255 -324 56 -27 83 -33 158 -36 l90 -4 59 -64 c84 -93 137 -118 251 -119 74 0 98 4 136 23 107 52 172 141 188 253 7 55 12 66 42 89 73 54 120 124 135 198 l7 32 -663 0 -663 0 5 -48z"/>
 <path d="M3314 1101 c-13 -13 2 -39 46 -83 40 -39 50 -56 50 -82 0 -63 73 -138 147 -152 55 -10 113 12 159 62 33 36 48 44 76 44 92 0 198 62 237 139 41 79 71 73 -342 75 -203 0 -371 -1 -373 -3z"/>
 </g>
<g id="layer106" fill="#addafc" stroke="none">
 <path d="M2444 4889 c-3 -6 -29 -10 -58 -8 -28 1 -58 -1 -66 -4 -8 -2 -66 -12 -129 -22 -336 -50 -703 -201 -991 -408 -315 -226 -560 -510 -759 -877 -10 -19 -50 -107 -64 -140 -5 -14 -16 -38 -23 -55 -34 -80 -98 -332 -119 -470 -36 -229 -29 -580 16 -805 29 -149 77 -318 109 -387 17 -36 30 -68 30 -71 0 -13 116 -245 156 -312 83 -139 245 -340 380 -470 177 -172 421 -343 601 -422 27 -11 51 -26 55 -32 5 -6 8 -7 8 -1 0 6 3 5 8 -1 11 -18 192 -81 335 -119 428 -111 826 -111 1254 0 143 38 324 101 335 119 4 6 8 7 8 3 0 -4 6 -3 13 2 6 6 61 36 122 67 137 70 210 117 352 228 393 307 723 849 824 1356 12 58 24 112 27 120 3 8 4 25 3 37 -1 13 1 28 5 35 5 7 7 27 5 45 -1 18 1 38 5 45 5 7 7 45 5 84 -2 44 2 74 8 78 14 9 14 83 0 92 -7 4 -10 35 -8 83 1 42 0 83 -3 91 -4 8 -12 58 -18 110 -16 127 -79 370 -129 500 -215 555 -633 1010 -1166 1271 -166 81 -395 159 -555 189 -63 12 -122 24 -130 27 -8 3 -29 5 -46 4 -18 -1 -35 2 -38 7 -3 5 -28 7 -56 4 -27 -2 -56 0 -62 6 -17 13 -236 14 -244 1z m998 -474 c17 -7 18 -75 20 -1174 l3 -1166 114 -3 c64 -1 121 -8 128 -14 10 -8 13 -82 13 -348 0 -186 -3 -345 -6 -354 -5 -14 -36 -16 -243 -16 l-236 -1 -31 -27 c-21 -18 -33 -40 -37 -66 -16 -100 -105 -231 -194 -283 -174 -102 -372 -75 -514 70 -52 52 -61 57 -101 57 -138 0 -316 92 -398 207 l-31 43 -413 0 c-307 0 -415 3 -424 12 -9 9 -12 101 -12 355 0 328 1 343 19 353 11 5 69 10 130 10 l111 0 0 464 0 464 -43 25 c-79 47 -167 169 -167 234 0 13 -24 49 -55 83 -74 84 -122 219 -95 269 10 20 19 21 185 21 l175 0 0 378 c0 287 3 382 13 395 10 14 38 17 192 20 311 6 1879 0 1897 -8z m692 -3241 c20 -19 20 -35 1 -109 -20 -76 -74 -156 -133 -195 -49 -32 -128 -60 -172 -60 -16 0 -37 -12 -56 -31 -43 -47 -119 -79 -184 -79 -80 0 -121 15 -175 62 -44 39 -95 123 -95 157 0 8 -18 33 -39 56 -25 27 -46 63 -55 96 -20 66 -20 84 0 103 14 14 69 16 454 16 385 0 440 -2 454 -16z"/>
 <path d="M1072 3508 c17 -50 55 -102 98 -137 26 -21 40 -40 40 -55 0 -42 32 -124 62 -160 16 -20 51 -48 76 -64 41 -23 58 -27 127 -27 69 0 86 4 127 28 26 15 66 49 88 76 l41 49 82 4 c98 5 152 28 226 94 51 45 96 123 111 189 l8 35 -549 0 -548 0 11 -32z"/>
 <path d="M1170 1505 l0 -85 348 0 c192 0 352 3 355 7 4 3 3 11 -2 17 -8 10 -24 87 -30 139 -1 4 -152 7 -336 7 l-335 0 0 -85z"/>
 <path d="M1942 1542 c12 -120 124 -263 255 -324 56 -27 83 -33 158 -36 l90 -4 59 -64 c84 -93 137 -118 251 -119 74 0 98 4 136 23 107 52 172 141 188 253 7 55 12 66 42 89 73 54 120 124 135 198 l7 32 -663 0 -663 0 5 -48z"/>
 <path d="M3354 1563 c-3 -15 -9 -37 -14 -48 -9 -22 -30 -86 -30 -92 0 -2 73 -2 163 -1 l162 3 0 80 0 80 -137 3 -137 3 -7 -28z"/>
 <path d="M3314 1101 c-13 -13 2 -39 46 -83 40 -39 50 -56 50 -82 0 -63 73 -138 147 -152 55 -10 113 12 159 62 33 36 48 44 76 44 92 0 198 62 237 139 41 79 71 73 -342 75 -203 0 -371 -1 -373 -3z"/>
 </g>
<g id="layer107" fill="#f9faf9" stroke="none">
 <path d="M2444 4889 c-3 -6 -29 -10 -58 -8 -28 1 -58 -1 -66 -4 -8 -2 -66 -12 -129 -22 -336 -50 -703 -201 -991 -408 -315 -226 -560 -510 -759 -877 -10 -19 -50 -107 -64 -140 -5 -14 -16 -38 -23 -55 -34 -80 -98 -332 -119 -470 -36 -229 -29 -580 16 -805 29 -149 77 -318 109 -387 17 -36 30 -68 30 -71 0 -13 116 -245 156 -312 83 -139 245 -340 380 -470 177 -172 421 -343 601 -422 27 -11 51 -26 55 -32 5 -6 8 -7 8 -1 0 6 3 5 8 -1 11 -18 192 -81 335 -119 428 -111 826 -111 1254 0 143 38 324 101 335 119 4 6 8 7 8 3 0 -4 6 -3 13 2 6 6 61 36 122 67 137 70 210 117 352 228 393 307 723 849 824 1356 12 58 24 112 27 120 3 8 4 25 3 37 -1 13 1 28 5 35 5 7 7 27 5 45 -1 18 1 38 5 45 5 7 7 45 5 84 -2 44 2 74 8 78 14 9 14 83 0 92 -7 4 -10 35 -8 83 1 42 0 83 -3 91 -4 8 -12 58 -18 110 -16 127 -79 370 -129 500 -215 555 -633 1010 -1166 1271 -166 81 -395 159 -555 189 -63 12 -122 24 -130 27 -8 3 -29 5 -46 4 -18 -1 -35 2 -38 7 -3 5 -28 7 -56 4 -27 -2 -56 0 -62 6 -17 13 -236 14 -244 1z m998 -473 c17 -8 18 -76 20 -1175 l3 -1166 114 -3 c64 -1 121 -8 128 -14 10 -8 13 -82 13 -348 0 -186 -3 -345 -6 -354 -5 -14 -36 -16 -241 -16 l-235 0 -31 -26 c-17 -14 -32 -33 -32 -42 -4 -40 -47 -156 -67 -183 -71 -91 -121 -128 -232 -170 -49 -18 -72 -21 -135 -16 -112 8 -188 41 -273 118 -38 35 -78 64 -87 64 -49 2 -146 19 -169 31 -15 8 -33 14 -41 14 -36 0 -219 151 -234 193 -6 17 -32 18 -418 17 -303 -1 -414 2 -425 11 -12 9 -14 70 -14 360 0 253 3 350 12 355 6 4 64 6 130 5 l118 -2 0 457 c0 412 -2 459 -17 476 -9 10 -21 18 -28 18 -43 0 -165 175 -165 237 0 13 -17 40 -41 65 -54 55 -85 110 -103 183 -19 72 -20 86 -3 109 12 17 30 18 185 17 l172 -2 0 375 c0 206 4 386 9 399 l9 24 1034 -2 c568 0 1041 -5 1050 -9z m688 -3226 c21 -13 19 -81 -5 -160 -24 -79 -88 -148 -173 -188 -59 -28 -66 -30 -118 -34 -22 -2 -48 -19 -82 -51 -33 -30 -60 -47 -76 -47 -14 0 -27 -3 -29 -7 -6 -9 -108 -9 -123 -1 -5 3 -24 9 -42 13 -20 4 -53 27 -85 60 -44 43 -56 63 -67 109 -10 43 -22 64 -46 84 -61 51 -95 212 -46 225 35 9 877 7 892 -3z"/>
 <path d="M1080 3525 c0 -26 26 -79 49 -99 11 -11 21 -24 21 -30 0 -7 13 -16 29 -22 24 -10 29 -19 36 -59 8 -55 61 -175 77 -175 5 0 23 -11 39 -25 16 -13 45 -27 64 -31 20 -3 38 -10 41 -15 7 -12 81 -12 89 0 3 5 18 12 35 16 37 8 111 64 129 98 15 28 33 34 126 41 28 2 64 9 80 16 17 6 40 16 52 21 32 12 120 81 127 99 3 8 15 30 26 49 12 18 29 56 40 82 l18 49 -67 0 -66 0 -18 -49 c-37 -104 -137 -181 -256 -197 -41 -5 -57 -13 -73 -35 -44 -59 -167 -86 -246 -53 -67 28 -131 110 -132 169 0 10 -17 37 -39 60 -21 22 -43 54 -48 70 -9 29 -13 30 -71 33 -51 2 -62 0 -62 -13z"/>
 <path d="M1170 1505 l0 -85 348 0 c192 0 352 3 355 7 4 3 3 11 -2 17 -8 10 -24 87 -30 139 -1 4 -152 7 -336 7 l-335 0 0 -85z"/>
 <path d="M1943 1558 c3 -18 9 -46 16 -61 6 -16 11 -33 11 -38 0 -17 76 -122 111 -155 48 -44 131 -92 173 -100 20 -3 38 -10 41 -14 2 -4 39 -6 81 -5 84 3 77 7 149 -82 32 -40 94 -83 119 -83 3 0 17 -5 33 -11 31 -13 118 -15 148 -4 11 4 34 12 50 18 17 5 44 21 62 34 17 12 36 23 42 23 6 0 11 6 11 13 0 8 9 22 19 31 19 17 63 108 66 136 6 60 18 92 41 107 31 20 94 82 94 93 0 4 9 29 21 54 30 69 23 77 -62 74 -76 -3 -76 -3 -100 -66 -6 -18 -31 -53 -55 -78 -32 -32 -46 -56 -50 -85 -15 -91 -117 -190 -209 -202 -96 -14 -176 14 -237 81 -32 36 -40 39 -101 45 -148 14 -248 102 -316 280 -10 26 -13 27 -86 27 l-76 0 4 -32z"/>
 <path d="M3354 1563 c-3 -15 -9 -37 -14 -48 -9 -22 -30 -86 -30 -92 0 -2 73 -2 163 -1 l162 3 0 80 0 80 -137 3 -137 3 -7 -28z"/>
 <path d="M3320 1083 c0 -15 44 -70 63 -79 14 -6 26 -29 37 -69 18 -66 39 -105 56 -105 6 0 17 -7 24 -15 7 -8 22 -15 34 -15 12 0 28 -6 34 -12 10 -10 17 -10 32 0 11 6 26 12 34 12 8 0 28 11 44 25 17 14 35 25 41 25 6 0 11 6 11 14 0 22 49 50 65 36 9 -8 15 -8 20 0 3 5 21 10 39 10 62 0 165 87 182 154 6 24 4 26 -30 26 -31 0 -38 -4 -47 -27 -23 -62 -109 -123 -172 -123 -24 0 -41 -8 -62 -30 -15 -16 -44 -35 -63 -41 -38 -13 -105 -5 -134 15 -29 21 -68 77 -68 100 -1 12 -18 40 -39 64 -30 32 -46 42 -70 42 -17 0 -31 -3 -31 -7z"/>
 </g>

</svg>